Coordinates
version=1
nRows=7
nColumns=42
inDegrees=yes

Units are S.I. units (second, meters, Newtons, ...)
If the header above contains a line with 'inDegrees', this indicates whether rotational values are in degrees (yes) or radians (no).

endheader
time	pelvis_tilt	pelvis_list	pelvis_rotation	pelvis_tx	pelvis_ty	pelvis_tz	hip_flexion_r	hip_adduction_r	hip_rotation_r	knee_angle_r	knee_adduction_r	knee_angle_r_beta	ankle_angle_r	subtalar_angle_r	mtp_angle_r	hip_flexion_l	hip_adduction_l	hip_rotation_l	knee_angle_l	knee_adduction_l	knee_angle_l_beta	ankle_angle_l	subtalar_angle_l	mtp_angle_l	lumbar_extension	lumbar_bending	lumbar_rotation	arm_flex_r	arm_add_r	arm_rot_r	elbow_flex_r	pro_sup_r	wrist_flex_r	wrist_dev_r	arm_flex_l	arm_add_l	arm_rot_l	elbow_flex_l	pro_sup_l	wrist_flex_l	wrist_dev_l
      0.75000000	     19.81868931	      0.18767106	      0.56516209	     -1.20423933	      0.88503264	     -0.00595965	    -27.26364349	      3.27800889	    -17.51441209	     21.01170663	     -2.37193479	      0.36672346	     30.25213739	     13.37219030	     -8.18871890	      7.63171880	     -0.91997925	      4.37312866	     10.57318316	      2.15951838	      0.18453686	      4.26197590	    -10.57537311	     -8.18871890	    -41.30490470	     -1.07348893	      1.43014219	     22.48794213	    -10.04299714	     -1.51549904	     40.40436814	     90.00000001	      0.00000000	      0.00000000	      5.36400383	     -3.62114093	    -34.05285561	     36.00873044	     90.00000001	      0.00000000	      0.00000000
      0.76000000	     19.73281441	      0.16649779	      0.47378979	     -1.19433058	      0.88353274	     -0.00714934	    -27.85806126	      3.05256613	    -17.75387275	     21.13499688	     -2.28819524	      0.36887528	     30.06921418	     13.69573659	     -8.17551392	      7.96142258	     -0.74153668	      4.32663970	     11.58761129	      2.21162276	      0.20224197	      3.73207314	    -12.20360411	     -8.17551392	    -41.00970030	     -1.07577124	      1.43907221	     22.41756181	    -10.03741661	     -1.36672224	     40.52224069	     90.00000001	      0.00000000	      0.00000000	      5.08344711	     -3.48084279	    -34.32973335	     35.87383087	     90.00000001	      0.00000000	      0.00000000
      0.77000000	     19.67667330	      0.14883765	      0.43890888	     -1.18453980	      0.88211221	     -0.00837203	    -28.30784230	      2.84419163	    -18.33871789	     21.60521091	     -2.42105014	      0.37708207	     30.22596635	     14.37525469	     -8.13890915	      8.07448294	     -0.63676835	      4.93649323	     12.35764547	      2.51954671	      0.21568160	      3.00774544	    -13.83295948	     -8.13890915	    -40.78466572	     -1.06206412	      1.47299923	     22.37148310	    -10.01677230	     -1.32751454	     40.51057583	     90.00000001	      0.00000000	      0.00000000	      4.96287838	     -3.35208722	    -34.74447363	     35.65272719	     90.00000001	      0.00000000	      0.00000000
      0.78000000	     19.64783164	      0.14031412	      0.31227260	     -1.17449475	      0.88084046	     -0.00956288	    -28.81971662	      2.57050921	    -18.53539719	     22.04857764	     -2.42873683	      0.38482028	     30.05076883	     14.42477744	     -8.13304711	      8.13293862	     -0.52152315	      5.14921920	     13.29217945	      2.79220859	      0.23199230	      2.96447245	    -14.15944525	     -8.13304711	    -40.56325370	     -1.10645002	      1.58101310	     22.24777183	    -10.00186784	     -1.37723632	     40.51110572	     90.00000001	      0.00000000	      0.00000000	      4.74314885	     -3.24802901	    -34.78502067	     35.50480632	     90.00000001	      0.00000000	      0.00000000
      0.79000000	     19.47012626	      0.10824808	      0.25849234	     -1.16434988	      0.87929196	     -0.01093332	    -29.07855511	      2.30309027	    -18.91455408	     22.70328095	     -2.48291809	      0.39624700	     29.83254945	     14.58615909	     -8.12515148	      8.53161047	     -0.43445276	      5.25447198	     14.69852454	      3.12038065	      0.25653765	      2.82066645	    -14.61944938	     -8.12515148	    -40.16913547	     -1.09188345	      1.66179365	     22.04419683	    -10.00038892	     -1.49723418	     40.51738337	     90.00000001	      0.00000000	      0.00000000	      4.52643651	     -3.13295340	    -34.86179791	     35.32160125	     90.00000001	      0.00000000	      0.00000000
      0.80000000	     19.23334098	      0.06180505	      0.20378925	     -1.15409564	      0.87774311	     -0.01228214	    -29.23180876	      2.05354074	    -19.34604447	     23.40872046	     -2.62595206	      0.40855925	     29.64517308	     14.92325207	     -8.11879750	      8.97455583	     -0.35587768	      5.46146931	     16.16281323	      3.45598525	      0.28209431	      2.55225969	    -15.08340427	     -8.11879750	    -39.70465312	     -1.08085135	      1.75879998	     21.78182681	     -9.94379054	     -1.67283239	     40.48807831	     90.00000001	      0.00000000	      0.00000000	      4.33189817	     -3.01101564	    -34.99743902	     35.11113340	     90.00000001	      0.00000000	      0.00000000
      0.81000000	     18.95089145	      0.03470385	      0.19932044	     -1.14361425	      0.87616418	     -0.01372993	    -29.31317999	      1.79645282	    -19.89076255	     24.18147766	     -2.82075424	      0.42204640	     29.40038494	     15.44823419	     -8.11056150	      9.51511131	     -0.24300225	      5.60190929	     17.80839995	      3.77186028	      0.31081521	      2.29071913	    -15.44423104	     -8.11056150	    -39.16477282	     -1.05779784	      1.81689275	     21.43858521	     -9.88480733	     -1.96045876	     40.46627177	     90.00000001	      0.00000000	      0.00000000	      4.11026568	     -2.90364351	    -35.18401141	     34.88322077	     90.00000001	      0.00000000	      0.00000000
